<!--?xml version="1.0" standalone="no"?-->              <svg id="sw-js-blob-svg" viewBox="0 0 100 100" xmlns="http://www.w3.org/2000/svg">                    <defs>                         <linearGradient id="sw-gradient" x1="0" x2="1" y1="1" y2="0">                            <stop id="stop1" stop-color="rgba(248, 117, 55, 1)" offset="0%"></stop>                            <stop id="stop2" stop-color="rgba(194.513, 150.342, 77.432, 1)" offset="100%"></stop>                        </linearGradient>                    </defs>                <path fill="none" d="M17,-26.5C20.9,-20.6,22.1,-14.1,24.8,-7.7C27.4,-1.2,31.4,5.1,31.2,11.5C31,17.8,26.5,24.1,20.6,29.1C14.7,34.1,7.4,37.9,0,37.8C-7.3,37.8,-14.6,34,-18.1,28.2C-21.5,22.4,-21,14.5,-23.6,7.5C-26.2,0.4,-31.8,-5.9,-32.3,-12.4C-32.8,-18.8,-28.1,-25.5,-21.8,-30.7C-15.6,-35.8,-7.8,-39.5,-0.6,-38.7C6.6,-37.9,13.1,-32.5,17,-26.5Z" width="100%" height="100%" transform="translate(50 50)" style="transition: all 0.3s ease 0s;" stroke-width="1" stroke="url(#sw-gradient)"></path>  </svg>